<?xml version="1.0" standalone="no"?>
<!DOCTYPE svg PUBLIC "-//W3C//DTD SVG 20010904//EN"
 "http://www.w3.org/TR/2001/REC-SVG-20010904/DTD/svg10.dtd">
<svg version="1.0" xmlns="http://www.w3.org/2000/svg"
 width="128.000000pt" height="128.000000pt" viewBox="0 0 128.000000 128.000000"
 preserveAspectRatio="xMidYMid meet">

<g transform="translate(0.000000,128.000000) scale(0.100000,-0.100000)"
fill="#000000" stroke="none">
<path d="M725 938 c-3 -7 -11 -38 -19 -68 -8 -30 -44 -157 -80 -282 -36 -124
-66 -233 -66 -241 0 -17 30 -32 40 -20 4 4 19 51 33 103 15 52 53 187 86 300
59 204 61 219 23 220 -7 0 -15 -6 -17 -12z"/>
<path d="M340 745 l-115 -115 114 -114 c96 -97 117 -113 133 -105 10 5 18 15
18 21 0 6 -41 53 -92 105 l-92 93 94 95 c94 95 95 95 75 115 -20 20 -20 20
-135 -95z"/>
<path d="M852 848 c-7 -7 -12 -17 -12 -22 0 -6 42 -52 92 -103 l93 -93 -93
-93 c-50 -51 -92 -97 -92 -103 0 -7 7 -17 15 -24 13 -11 32 4 125 96 61 59
110 114 110 122 0 8 -42 55 -93 106 -128 126 -131 128 -145 114z"/>
</g>
</svg>
